<svg xmlns="http://www.w3.org/2000/svg" viewBox="0 0 900 560" role="img" aria-labelledby="title desc">
  <title id="title">Personal knowledge Q and A</title>
  <desc id="desc">Abstract knowledge cards connected to an AI answer core.</desc>
  <defs>
    <linearGradient id="bg" x1="0" x2="1" y1="0" y2="1">
      <stop offset="0" stop-color="#101720"/>
      <stop offset="1" stop-color="#071013"/>
    </linearGradient>
    <radialGradient id="halo" cx="48%" cy="48%" r="48%">
      <stop offset="0" stop-color="#9dff72" stop-opacity="0.26"/>
      <stop offset="1" stop-color="#9dff72" stop-opacity="0"/>
    </radialGradient>
  </defs>
  <rect width="900" height="560" fill="url(#bg)"/>
  <rect width="900" height="560" fill="url(#halo)"/>
  <g opacity="0.14" stroke="#d8fff7">
    <path d="M0 112h900M0 224h900M0 336h900M0 448h900"/>
    <path d="M112 0v560M224 0v560M336 0v560M448 0v560M560 0v560M672 0v560M784 0v560"/>
  </g>
  <circle cx="450" cy="280" r="92" fill="#ffffff" opacity="0.08" stroke="#3df0dc" stroke-opacity="0.42"/>
  <circle cx="450" cy="280" r="36" fill="#3df0dc" opacity="0.8"/>
  <g fill="none" stroke="#3df0dc" stroke-width="3" opacity="0.72">
    <path d="M450 280 218 154"/>
    <path d="M450 280 240 392"/>
    <path d="M450 280 682 144"/>
    <path d="M450 280 704 402"/>
  </g>
  <g fill="#ffffff" opacity="0.12" stroke="#d8fff7" stroke-opacity="0.28">
    <rect x="94" y="92" width="250" height="122" rx="18"/>
    <rect x="104" y="338" width="272" height="126" rx="18"/>
    <rect x="568" y="82" width="250" height="126" rx="18"/>
    <rect x="560" y="344" width="280" height="130" rx="18"/>
  </g>
  <g fill="#eef8f6" opacity="0.3">
    <rect x="136" y="132" width="126" height="10" rx="5"/>
    <rect x="136" y="164" width="166" height="8" rx="4"/>
    <rect x="150" y="382" width="156" height="10" rx="5"/>
    <rect x="150" y="416" width="180" height="8" rx="4"/>
    <rect x="614" y="124" width="138" height="10" rx="5"/>
    <rect x="614" y="158" width="160" height="8" rx="4"/>
    <rect x="610" y="386" width="180" height="10" rx="5"/>
    <rect x="610" y="420" width="140" height="8" rx="4"/>
  </g>
  <g fill="#eef8f6">
    <circle cx="218" cy="154" r="9"/>
    <circle cx="240" cy="392" r="9"/>
    <circle cx="682" cy="144" r="9"/>
    <circle cx="704" cy="402" r="9"/>
  </g>
</svg>
