<svg xmlns="http://www.w3.org/2000/svg" viewBox="0 0 900 560" role="img" aria-labelledby="title desc">
  <title id="title">AI resume assistant</title>
  <desc id="desc">Abstract resume document with AI matching signals.</desc>
  <defs>
    <linearGradient id="bg" x1="0" x2="1" y1="0" y2="1">
      <stop offset="0" stop-color="#122225"/>
      <stop offset="1" stop-color="#070f13"/>
    </linearGradient>
    <radialGradient id="glow" cx="70%" cy="35%" r="55%">
      <stop offset="0" stop-color="#3df0dc" stop-opacity="0.34"/>
      <stop offset="1" stop-color="#3df0dc" stop-opacity="0"/>
    </radialGradient>
  </defs>
  <rect width="900" height="560" fill="url(#bg)"/>
  <rect width="900" height="560" fill="url(#glow)"/>
  <g opacity="0.15" stroke="#d8fff7">
    <path d="M0 100h900M0 220h900M0 340h900M0 460h900"/>
    <path d="M150 0v560M300 0v560M450 0v560M600 0v560M750 0v560"/>
  </g>
  <rect x="96" y="76" width="330" height="410" rx="24" fill="#f6f1e8" opacity="0.92"/>
  <rect x="140" y="130" width="150" height="16" rx="8" fill="#071013" opacity="0.42"/>
  <rect x="140" y="184" width="230" height="9" rx="5" fill="#071013" opacity="0.24"/>
  <rect x="140" y="222" width="180" height="9" rx="5" fill="#071013" opacity="0.19"/>
  <rect x="140" y="260" width="240" height="9" rx="5" fill="#071013" opacity="0.19"/>
  <rect x="140" y="328" width="190" height="9" rx="5" fill="#071013" opacity="0.19"/>
  <rect x="140" y="366" width="220" height="9" rx="5" fill="#071013" opacity="0.14"/>
  <g fill="none" stroke-linecap="round">
    <path d="M420 168c118-50 210-26 286 80" stroke="#3df0dc" stroke-width="4"/>
    <path d="M420 330c120 42 210 28 286-84" stroke="#9dff72" stroke-width="4" opacity="0.78"/>
  </g>
  <g fill="#eef8f6">
    <circle cx="420" cy="168" r="10"/>
    <circle cx="706" cy="248" r="14"/>
    <circle cx="420" cy="330" r="10"/>
  </g>
  <rect x="554" y="106" width="230" height="120" rx="18" fill="#ffffff" opacity="0.13" stroke="#d8fff7" stroke-opacity="0.28"/>
  <rect x="594" y="150" width="118" height="11" rx="6" fill="#3df0dc"/>
  <rect x="594" y="184" width="150" height="8" rx="4" fill="#eef8f6" opacity="0.28"/>
  <rect x="538" y="300" width="260" height="130" rx="20" fill="#ffffff" opacity="0.1" stroke="#ffd166" stroke-opacity="0.36"/>
  <rect x="584" y="346" width="145" height="11" rx="6" fill="#ffd166"/>
  <rect x="584" y="382" width="170" height="8" rx="4" fill="#eef8f6" opacity="0.26"/>
</svg>
